PathFileType	4	(X/Y/Z)	C:/Users/beibeiliu/ov580/test_trc/User3\sequence.25_training_dense_right.trc
DataRate	CameraRate	NumFrames	NumMarkers	Units	OrigDataRate	OrigDataStartFrame	OrigNumFrames
120	120	22	19	mm	120	103	274
Frame#	Time	ThumbCMC			ThumbMCP			ThumbIP			ThumbTip			IndexMCP			IndexPIP			IndexTip			MiddleMCP			MiddlePIP			MiddleTip			RingMCP			RingPIP			RingTip			PinkyMCP			PinkyPIP			PinkyTip			BackHand1			BackHand2			BackHand3	
		X0	Y0	Z0	X1	Y1	Z1	X2	Y2	Z2	X3	Y3	Z3	X4	Y4	Z4	X5	Y5	Z5	X6	Y6	Z6	X7	Y7	Z7	X8	Y8	Z8	X9	Y9	Z9	X10	Y10	Z10	X11	Y11	Z11	X12	Y12	Z12	X13	Y13	Z13	X14	Y14	Z14	X15	Y15	Z15	X16	Y16	Z16	X17	Y17	Z17	X18	Y18	Z18	
102	0.85	183.493	54.4159	29.1265	168.176	68.9513	6.49922	154.326	78.9171	-21.289	140.105	75.6979	-35.7846	161.825	47.4551	-41.1082	130.707	58.41	-38.0879	135.232	56.6233	-3.62074	148.008	30.0699	-38.677	120.894	41.0331	-20.9727	146.347	33.1325	10.8577	143.521	12.7053	-29.5396	117.915	24.9634	-16.4028	133.348	27.9081	14.0383	151.004	-6.20619	-25.8556	138.157	-4.19733	-42.0711	126.026	-3.24512	-60.3299	187.785	-0.89214	0.949447	197.486	-6.3414	34.316	202.316	25.0372	15.2238	
103	0.858333	175.052	61.4692	36.9745	159.992	70.8933	12.2854	149.302	80.3604	-13.8395	138.118	81.2454	-38.4615	161.166	55.0412	-40.1109	129.307	63.9244	-37.2183	129.504	61.7306	-3.8284	152.387	35.8819	-39.0816	123.336	43.9871	-24.4627	142.565	39.6269	8.53285	149.313	21.257	-34.9661	122.814	23.1008	-23.1502	133.452	24.3251	9.08791	163.203	0.243696	-32.1352	155.267	5.09864	-48.1693	146.463	7.70129	-69.0317	193.681	7.19843	2.19802	200.92	3.29368	33.5769	201.907	40.1985	21.2785	
104	0.866667	163.522	54.9817	43.0884	149.015	72.903	17.6152	141.113	80.0871	-9.28019	133.629	78.2047	-31.1535	161.211	69.3026	-32.9903	126.404	66.8512	-38.7671	120.718	54.7991	-8.76452	153.545	49.909	-39.0939	124.296	40.2818	-29.1749	140.101	33.6018	6.00847	156.677	27.2956	-37.1037	127.01	23.8514	-26.4442	139.027	18.2412	5.12728	177.032	12.0187	-31.7666	169.732	17.5168	-52.5762	162.196	26.8615	-75.5542	199.631	20.025	7.24351	202.884	9.8569	35.6935	194.75	44.4679	28.4464	
105	0.875	153.371	49.2308	47.5521	137.247	65.1792	23.1224	131.236	74.5171	-7.20817	136.932	62.1448	-31.235	151.028	76.9283	-25.7528	122.876	67.3261	-37.1807	114.839	46.1273	-14.6987	153.505	55.0615	-35.1146	127.449	38.6231	-34.6559	139.208	28.2831	3.27611	159.171	38.084	-36.57	134.274	21.852	-30.3255	141.193	14.8947	-0.576148	185.974	27.5823	-31.0996	178.668	37.2792	-52.5803	174.391	43.5537	-71.8216	199.603	34.3396	9.03702	204.762	22.1087	37.8852	184.408	53.7797	34.8669	
106	0.883333	141.949	38.7079	51.7197	126.227	53.2725	26.2799	126.035	60.9746	-6.40792	138.18	47.9357	-24.6996	142.472	71.1747	-21.1751	120.846	57.8786	-38.0506	115.55	30.0013	-16.9118	151.663	54.442	-33.9179	129.923	30.7484	-37.7466	141.123	18.0608	0.638228	161.676	41.6468	-34.4881	143.109	18.8013	-35.9814	146.616	10.2229	-5.01881	190.641	34.9955	-27.6382	184.599	44.9207	-51.5566	181.912	51.3769	-69.0965	200.158	41.0436	13.301	206.107	24.5998	40.8766	175.734	52.666	39.7859	
107	0.891667	137.069	25.1954	49.5111	124.636	38.0248	21.657	128.134	45.0101	-10.6249	145.842	33.8266	-26.988	133.508	64.002	-19.6939	111.895	43.9862	-38.0011	115.824	16.6121	-15.6659	144.988	51.0038	-34.2589	128.806	24.443	-40.6668	140.397	5.64264	-9.7031	160.478	37.9866	-33.4187	148.788	8.63314	-37.6648	150.918	3.7261	-7.04027	188.968	37.9396	-29.1767	184.898	44.8267	-46.124	178.435	54.7127	-67.9614	194.156	40.3438	15.5586	199.312	28.0676	41.2362	167.905	45.6301	42.7532	
108	0.9	136.285	12.913	45.3914	118.772	26.7734	16.192	121.482	31.1149	-15.5781	146.848	20.9813	-27.5787	129.924	50.3534	-22.8246	112.409	25.8486	-43.0579	115.113	2.00837	-19.0436	143.747	41.0153	-32.1419	132.817	10.9177	-46.6418	138.818	-5.56864	-10.8167	158.478	27.0714	-38.0704	151.266	-1.91361	-40.514	156.191	-6.30316	-6.14018	185.744	32.7489	-31.9122	181.641	37.1065	-47.7762	179.382	44.716	-71.8941	189.784	33.8122	15.3364	193.669	24.3674	42.0687	162.369	39.1427	40.9877	
109	0.908333	130.129	3.64682	43.0044	115.164	11.5406	15.5188	118.4	17.1207	-19.5666	142.793	8.83171	-30.9284	125.185	35.4674	-26.5314	113.116	12.7785	-48.5321	117.05	-15.2605	-24.458	143.534	23.569	-41.6806	130.859	-4.6964	-47.075	142.965	-18.2291	-12.6927	161.915	13.2374	-40.2107	155.021	-14.3506	-43.0888	156.752	-18.296	-8.53803	183.128	23.0714	-30.7775	181.148	25.6813	-53.4676	176.043	28.9106	-74.9245	183.457	27.8808	14.1897	192.233	19.0451	40.7481	156.613	27.2281	37.6167	
110	0.916667	125.192	-3.75384	37.7112	110.73	-1.66115	10.4757	106.86	1.58962	-20.0591	133.168	-3.4789	-40.3561	128.203	18.6912	-33.6594	117.243	-8.77265	-53.5213	117.203	-30.2354	-28.503	141.292	9.34991	-41.8583	137.418	-26.076	-45.0846	144.951	-26.3502	-7.46839	162.527	-0.331841	-39.2263	153.319	-32.1235	-38.2962	155.37	-30.985	-8.48278	183.757	9.99741	-32.5485	178.784	9.80387	-52.9669	180.707	11.6547	-77.5958	180.598	19.2666	12.9657	185.633	11.1888	42.2728	149.956	22.0666	32.282	
111	0.925	125.076	-13.8772	35.6255	109.992	-14.864	10.1158	102.198	-13.5339	-19.3003	121.74	-17.9504	-42.3837	126.746	2.76104	-38.9369	118.802	-26.8659	-55.2942	118.873	-42.7582	-25.9077	144.358	-9.1535	-44.1323	137.276	-41.4751	-43.6715	144.46	-32.3747	-2.19573	163.983	-16.2661	-39.9362	156.35	-45.3996	-35.7574	156.278	-40.0611	-2.081	182.23	-4.50434	-29.7465	181.134	-6.68088	-53.2312	182.789	-7.16961	-74.7806	171.982	13.2601	8.78294	182.881	8.30676	39.2201	145.007	13.5907	32.7827	
112	0.933333	120.86	-19.6296	35.5304	110.126	-23.9083	7.54815	99.2503	-27.427	-18.5912	106.858	-32.8133	-45.5966	125.364	-12.5734	-39.0753	122.335	-44.6648	-50.0511	120.468	-52.5744	-21.0792	141.105	-26.881	-44.4236	140.789	-56.1687	-38.6188	140.541	-42.0709	1.11318	160.612	-29.4233	-39.1077	157.136	-59.5605	-29.8943	155.908	-49.0516	3.12308	184.226	-16.349	-29.5603	185.607	-20.3351	-52.9113	184.057	-24.5224	-74.4581	173.284	6.6015	7.17902	177.803	4.49929	38.6116	141.986	5.66678	27.62	
113	0.941667	115.28	-22.7349	39.1362	101.842	-32.9982	12.9294	94.3158	-37.6279	-18.8251	96.9389	-47.1957	-39.5642	125.68	-25.2595	-38.1635	116.083	-56.1965	-43.8632	120.8	-57.8966	-7.29853	145.213	-37.5985	-39.1477	139.582	-68.7023	-26.8779	139.111	-52.6461	4.8605	158.591	-42.0431	-34.069	158.359	-71.0557	-23.1054	151.509	-57.7168	9.67029	182.914	-28.6034	-29.6193	181.032	-35.0836	-50.3019	185.651	-41.8814	-68.5849	170.116	-3.04981	7.15848	173.704	-1.74716	41.8839	139.518	1.20425	28.9471	
114	0.95	112.784	-23.3922	39.4933	100.289	-35.9722	17.8956	92.5309	-46.1741	-8.05182	93.0526	-57.6429	-33.2267	118.603	-37.9376	-33.5074	110.828	-69.1383	-30.1262	115.977	-63.237	2.42743	139.865	-51.8584	-34.7045	128.894	-77.2782	-20.2183	132.437	-57.6197	13.2089	152.679	-54.8204	-27.919	148.408	-82.1527	-10.343	147.234	-68.3932	17.3098	181.27	-42.2063	-22.7308	179.535	-53.6876	-44.1009	181.487	-64.9364	-60.4387	170.666	-10.0756	12.3512	170.863	-3.76891	37.4779	137.231	-1.75043	29.2439	
115	0.958333	109.02	-19.6184	47.8424	91.2572	-35.1457	25.2077	80.7331	-49.2297	1.62808	84.2239	-66.3313	-18.0364	113.731	-47.6868	-24.8552	98.5232	-77.5321	-15.4995	102.859	-62.6989	16.1397	127.29	-62.4508	-24.0721	118.664	-86.7537	-0.605758	124.295	-56.1763	25.3987	147.59	-67.1373	-14.8513	133.66	-90.1536	2.27857	136.917	-71.1998	30.2102	169.191	-59.4438	-15.0379	165.616	-75.1861	-32.1902	163.621	-89.8753	-46.5721	166.1	-20.3526	14.7551	169.936	-10.3364	41.3091	139.512	-3.69182	26.051	
116	0.966667	109.496	-16.456	47.2217	87.1817	-32.1485	29.7195	71.2795	-47.7058	8.3225	70.2095	-64.7512	-5.15105	103.235	-53.0984	-17.0202	84.2687	-79.0803	-1.49732	96.5452	-64.1569	26.9063	113.474	-69.4082	-13.6997	106.045	-87.2271	13.2149	118.332	-57.9245	33.9176	131.312	-76.8644	-5.48552	121.862	-93.5376	17.1179	125.858	-70.703	39.4979	156.98	-68.8919	-8.19456	154.22	-86.2048	-19.2539	141.456	-108.256	-29.1378	158.993	-27.5268	12.1993	168.405	-10.6316	41.8426	135.359	-2.69264	28.3857	
117	0.975	106.978	-12.2162	51.0662	81.7352	-24.9379	37.3897	68.5034	-42.2499	17.2592	57.7989	-60.6762	1.65903	88.2158	-53.6797	-10.5629	71.7889	-74.7889	6.71266	82.703	-61.7176	35.9869	102.394	-69.6294	-4.08522	89.2725	-83.6668	19.6557	107.749	-53.4712	41.8317	120.96	-78.671	3.28514	108.742	-89.6125	27.7512	115.903	-61.3048	47.257	146.05	-76.5162	-3.24961	136.964	-93.4569	-10.695	117.076	-115.926	-7.73865	151.829	-30.03	14.1866	167.346	-16.8533	41.7244	131.076	-6.0895	25.7725	
118	0.983333	104.211	-2.0393	57.3591	80.0057	-17.8337	40.1671	59.7273	-30.0153	26.3844	54.1805	-51.9456	10.3016	80.782	-44.442	-2.2883	59.8063	-67.0257	12.5858	68.2332	-54.6813	43.8963	91.5365	-61.8106	3.4989	76.9136	-76.4583	29.0969	100.406	-50.2238	49.2615	106.019	-76.917	11.068	97.7899	-82.5536	40.0349	106.696	-55.3489	53.8576	132.423	-72.6208	5.58744	114.352	-97.4953	1.5458	97.4126	-107.471	14.9688	147.665	-29.0988	17.3292	163.184	-17.0075	40.8161	129.028	-2.5267	27.1236	
119	0.991667	104.055	5.18137	60.1029	77.2747	-4.4809	44.8508	61.2268	-20.9677	28.7401	62.5774	-46.9399	20.1095	70.0441	-31.6936	4.53668	48.7304	-54.1991	20.8897	58.6971	-44.9055	50.2628	75.8609	-54.6483	8.34712	63.138	-64.9798	36.1953	88.5794	-45.1843	54.5311	91.7198	-63.8863	15.8287	82.7958	-73.4686	45.6475	95.6341	-50.5131	58.807	118.343	-70.7252	11.2021	92.8549	-88.0276	12.1607	78.3676	-93.7664	34.1417	137.999	-26.9158	21.374	155.625	-15.2085	38.375	123.81	2.98694	32.0801	
120	1	107.117	16.0668	61.5757	76.5841	5.49605	43.8501	65.6148	-19.4193	31.1482	72.1469	-44.609	29.3359	60.9512	-23.4927	9.72858	37.8378	-33.1678	28.9586	53.4991	-25.191	55.8754	62.8592	-39.2322	12.9363	49.6259	-49.7141	37.9194	79.6241	-31.1275	58.4541	78.7976	-54.2313	21.5805	66.3269	-61.8959	48.5524	86.5723	-41.5771	65.7601	101.819	-65.3749	18.0362	77.3826	-77.6145	21.3813	64.6263	-74.3898	50.2636	128.245	-26.1943	20.4684	154.513	-14.5689	40.6521	125.906	6.75304	30.4262	
121	1.00833	110.288	22.7236	59.0886	77.5021	12.428	51.8462	71.243	-21.9005	40.7309	76.2289	-45.3026	42.0137	60.7163	-9.87987	13.8321	34.9021	-10.4938	36.9629	58.4361	0.126972	57.8491	62.8075	-31.4778	16.3725	41.0495	-30.9377	41.0078	77.3401	-13.506	53.4928	69.2103	-45.1094	27.1504	55.73	-44.0489	56.1463	77.1005	-23.4397	70.3815	87.0101	-57.4731	24.2753	61.6071	-62.1217	29.234	52.6423	-55.6309	59.1484	124.256	-26.8253	23.4494	149.468	-21.7069	41.5026	126.523	4.09438	29.7606	
122	1.01667	116.061	29.8795	55.2189	81.0057	23.1315	48.8482	69.7882	-7.88158	43.868	76.6901	-33.3027	46.9598	57.6581	2.58794	14.7327	35.876	7.33658	38.9286	57.1709	19.0747	56.0708	59.1684	-18.5462	18.4986	39.4218	-14.9517	44.0014	75.0014	2.18802	55.2271	61.5545	-32.9451	31.929	48.7569	-25.5606	59.4667	76.3535	-11.148	73.2875	77.765	-45.9137	28.033	54.8488	-50.1609	31.2061	40.8878	-42.1686	60.524	120.62	-28.3499	25.4843	149.713	-24.0405	45.1866	132.272	9.91922	29.0057	
123	1.025	127.289	35.1465	52.3446	92.4224	36.8299	38.154	72.1421	17.3466	34.9657	64.8049	-11.258	44.1363	61.8384	12.7122	13.6252	38.738	22.4099	34.8021	65.5977	30.3142	58.244	57.1558	-6.6803	22.1524	41.1349	5.24187	48.6418	75.3759	13.8502	63.8938	58.1287	-20.7311	33.9394	48.7828	-8.94118	60.5866	77.13	0.0159896	72.1766	77.7624	-42.2695	34.087	47.8868	-42.493	34.7133	27.0597	-35.2232	49.2416	119.971	-27.5176	30.3245	148.361	-23.9311	46.0256	134.716	8.44031	29.6289	
